<?xml version="1.0" encoding="UTF-8"?>
<svg id="Layer_1" xmlns="http://www.w3.org/2000/svg" version="1.1" viewBox="0 0 100 100">
  <!-- Generator: Adobe Illustrator 29.4.0, SVG Export Plug-In . SVG Version: 2.1.0 Build 152)  -->
  <defs>
    <style>
      .st0 {
        fill: none;
        stroke: #000;
        stroke-linecap: round;
        stroke-miterlimit: 10;
        stroke-width: 4px;
      }

      .st1 {
        display: none;
      }
    </style>
  </defs>
  <g id="Layer_11" data-name="Layer_1" class="st1">
    <path d="M27.23,26.18c-2.36,2.36-3.89,5.24-4.61,8.26.84-1.41,1.84-2.74,3.05-3.95,7.88-7.88,20.64-7.88,28.52,0,.64.64,1.2,1.31,1.74,2.01-.85-2.3-2.17-4.47-4.02-6.32-6.82-6.82-17.87-6.82-24.68,0Z"/>
    <path d="M62.97,56.46c.09-.13.18-.24.24-.37,8.05-11.44,6.98-27.29-3.24-37.5-11.44-11.44-29.98-11.44-41.4,0-11.44,11.42-11.44,29.95,0,41.4,10.19,10.19,26.08,11.29,37.5,3.26.2-.13.37-.29.57-.42,1.17-.84,2.27-1.78,3.32-2.84,1.14-1.13,2.13-2.3,3.01-3.53ZM53.88,53.88c-8.08,8.06-21.15,8.06-29.2,0-8.08-8.08-8.08-21.15,0-29.2,8.05-8.08,21.13-8.08,29.2,0,8.06,8.05,8.06,21.13,0,29.2Z"/>
    <path d="M64.89,57.56c-.04.07-.09.13-.13.2-.95,1.32-2,2.57-3.21,3.79-1.17,1.17-2.35,2.18-3.61,3.06-.13.09-.26.2-.4.29l20.51,23.06c2.73,2.73,7.17,2.73,9.9,0s2.73-7.15,0-9.9c0,0-23.06-20.5-23.06-20.5Z"/>
  </g>
  <g id="Layer_2">
    <g>
      <line class="st0" x1="11.82" y1="11.82" x2="88.18" y2="88.18"/>
      <line class="st0" x1="11.82" y1="88.18" x2="88.18" y2="11.82"/>
    </g>
  </g>
</svg>